<?xml version="1.0" standalone="no"?>
<!DOCTYPE svg PUBLIC "-//W3C//DTD SVG 20010904//EN"
 "http://www.w3.org/TR/2001/REC-SVG-20010904/DTD/svg10.dtd">
<svg version="1.0" xmlns="http://www.w3.org/2000/svg"
 width="1650.000000pt" height="1275.000000pt" viewBox="0 0 1650.000000 1275.000000"
 preserveAspectRatio="xMidYMid meet">

<g transform="translate(0.000000,1275.000000) scale(0.100000,-0.100000)"
fill="#000000" stroke="none">
<path d="M7605 7728 c-16 -5 -115 -14 -220 -19 -409 -21 -461 -25 -488 -37
-16 -7 -40 -12 -55 -12 -59 0 -166 -55 -218 -111 -33 -36 -53 -54 -124 -109
-46 -36 -66 -53 -110 -91 -14 -11 -64 -49 -112 -82 -49 -34 -88 -65 -88 -69 0
-4 -5 -8 -10 -8 -6 0 -21 -9 -33 -20 -32 -30 -182 -130 -196 -130 -6 0 -11 -4
-11 -10 0 -5 -6 -10 -13 -10 -7 0 -24 -11 -39 -25 -36 -33 -139 -105 -150
-105 -5 0 -37 -20 -71 -44 -34 -24 -80 -52 -102 -62 -22 -10 -44 -24 -48 -31
-4 -7 -15 -13 -22 -13 -8 0 -15 -4 -15 -9 0 -5 -11 -11 -23 -15 -13 -3 -62
-31 -108 -62 -46 -30 -96 -58 -112 -61 -15 -3 -30 -10 -33 -14 -3 -5 -31 -9
-62 -9 -31 0 -75 -7 -97 -15 -23 -8 -78 -14 -132 -15 -50 0 -95 -4 -98 -10 -3
-5 -31 -10 -61 -10 -31 0 -65 -5 -77 -12 -12 -6 -87 -15 -167 -20 -266 -16
-345 -23 -357 -31 -7 -4 -59 -12 -115 -17 -161 -15 -243 -26 -259 -36 -8 -5
-72 -12 -144 -16 -168 -9 -316 -23 -335 -32 -15 -6 -131 -20 -295 -34 -44 -4
-87 -11 -95 -17 -8 -5 -78 -13 -155 -17 -202 -11 -308 -22 -324 -32 -8 -5 -49
-13 -90 -18 -42 -5 -105 -12 -141 -16 -36 -4 -71 -11 -78 -15 -12 -8 -70 -17
-215 -33 -35 -5 -54 -2 -74 11 -21 14 -39 16 -87 12 l-61 -6 60 25 c318 133
889 324 1055 352 216 38 532 81 990 137 162 19 367 44 455 55 88 11 306 36
485 55 179 20 332 38 340 40 15 4 -35 2 -455 -15 -456 -19 -582 -27 -596 -35
-7 -5 -79 -13 -159 -17 -259 -14 -384 -25 -420 -37 -19 -6 -76 -11 -127 -11
-50 0 -95 -4 -98 -10 -3 -5 -37 -10 -74 -10 -38 0 -88 -7 -111 -15 -23 -8 -64
-15 -91 -15 -26 0 -51 -4 -54 -10 -3 -5 -30 -10 -58 -10 -29 -1 -63 -7 -77
-15 -14 -8 -48 -14 -77 -15 -28 0 -55 -4 -58 -10 -3 -5 -21 -10 -39 -10 -18 0
-41 -7 -52 -15 -10 -8 -33 -15 -51 -15 -17 0 -35 -4 -38 -10 -3 -5 -17 -10
-30 -10 -13 0 -38 -8 -57 -17 -61 -31 -68 -33 -87 -33 -10 0 -24 -7 -31 -15
-7 -8 -20 -15 -29 -15 -15 0 -98 -35 -143 -60 -10 -6 -27 -10 -37 -10 -11 0
-22 -4 -25 -9 -3 -5 -18 -12 -33 -15 -26 -6 -113 -44 -155 -67 -10 -5 -25 -9
-34 -9 -8 0 -22 -7 -30 -15 -9 -8 -26 -15 -40 -15 -13 0 -24 -4 -24 -10 0 -5
-8 -10 -19 -10 -10 0 -33 -10 -52 -23 -19 -12 -59 -35 -91 -50 -39 -20 -58
-36 -62 -53 -4 -13 -11 -24 -16 -24 -6 0 -10 -36 -10 -85 l0 -86 43 25 c87 50
142 59 517 86 74 5 227 17 340 25 113 8 273 20 355 25 83 5 200 14 260 19 61
5 175 15 255 21 80 6 197 15 260 20 63 5 149 12 190 14 122 9 634 48 860 66
69 5 215 17 325 25 110 8 256 19 325 25 69 5 164 12 212 16 86 6 87 7 140 53
302 267 1019 877 1183 1007 104 82 131 98 200 112 74 16 316 40 515 52 255 15
902 23 1071 13 135 -8 151 -11 210 -40 40 -20 98 -63 152 -114 48 -45 109 -98
135 -118 26 -19 52 -40 58 -46 6 -5 25 -21 43 -35 18 -14 56 -45 83 -70 28
-25 62 -52 77 -61 14 -9 39 -33 56 -53 16 -20 33 -36 37 -36 7 0 42 -27 78
-60 8 -8 34 -28 55 -44 22 -16 67 -57 101 -90 55 -56 106 -100 159 -140 15
-12 48 -15 130 -16 61 0 198 -4 305 -10 107 -5 319 -14 470 -20 478 -19 767
-30 1020 -40 340 -12 707 -28 950 -40 288 -14 626 -29 895 -40 261 -11 461
-22 820 -44 380 -24 445 -31 495 -55 49 -23 150 -110 150 -128 0 -7 6 -16 13
-20 7 -4 23 -25 37 -45 14 -21 29 -38 34 -38 24 0 -25 175 -75 266 -44 78 -56
94 -99 126 -48 35 -70 38 -349 48 -134 5 -251 12 -260 16 -17 8 -373 20 -936
32 -209 4 -366 11 -375 17 -9 6 -169 13 -385 17 -650 12 -990 23 -1005 33 -8
5 -78 13 -155 17 -242 14 -340 23 -355 33 -8 5 -64 13 -125 18 -284 20 -332
24 -358 35 -16 7 -50 12 -77 12 -27 0 -52 5 -55 10 -3 6 -27 10 -53 10 -26 1
-58 7 -72 15 -14 8 -46 14 -72 15 -26 0 -50 5 -53 10 -3 6 -22 10 -42 10 -31
0 -94 16 -158 41 -11 4 -31 10 -45 12 -28 6 -86 25 -112 38 -10 5 -26 9 -37 9
-10 0 -24 7 -31 15 -7 8 -23 15 -36 15 -13 0 -24 5 -24 10 0 6 -6 10 -14 10
-8 0 -38 12 -68 26 -29 14 -68 33 -85 41 -18 9 -33 20 -33 25 0 4 -8 8 -17 8
-27 0 -323 202 -398 271 -76 70 -91 84 -133 117 -22 19 -51 43 -64 54 -50 44
-105 75 -143 82 -22 4 -44 11 -50 16 -11 9 -64 14 -270 29 -71 5 -143 14 -158
20 -36 14 -619 14 -662 -1z"/>
<path d="M7665 7450 c-16 -4 -71 -8 -122 -9 -50 0 -104 -6 -120 -12 -15 -6
-111 -15 -213 -20 -206 -10 -270 -17 -284 -30 -6 -5 -17 -9 -26 -9 -20 0 -125
-54 -160 -83 -15 -12 -60 -49 -101 -81 -41 -33 -128 -116 -195 -185 -160 -167
-177 -183 -200 -201 -106 -82 -149 -117 -173 -142 -9 -9 -40 -32 -70 -52 -29
-20 -62 -47 -73 -61 -26 -33 -36 -43 -88 -85 -51 -41 -120 -112 -120 -123 0
-4 6 -9 13 -12 6 -2 1750 -9 3874 -15 2124 -7 3867 -13 3875 -13 7 -1 14 3 16
8 1 6 -90 12 -250 17 -139 3 -269 9 -288 13 -58 11 -325 24 -671 33 -179 5
-332 13 -340 18 -8 5 -106 12 -219 16 -113 4 -286 12 -385 17 -314 17 -866 30
-1303 31 -460 0 -436 -3 -502 57 -14 13 -28 23 -32 23 -5 0 -8 7 -8 16 0 16
-170 190 -330 337 -47 43 -112 103 -145 135 -33 32 -80 73 -104 92 -25 19 -49
41 -55 48 -15 18 -40 41 -116 104 -85 71 -141 108 -162 108 -10 0 -18 4 -18
10 0 5 -16 12 -35 16 -19 3 -35 10 -35 14 0 5 -30 11 -67 15 -103 10 -734 14
-768 5z m342 -91 c100 -6 192 -17 210 -24 48 -20 103 -74 103 -102 0 -13 7
-26 15 -29 8 -4 15 -13 15 -21 0 -8 9 -26 20 -40 11 -14 20 -31 20 -38 0 -7 7
-18 15 -25 8 -7 15 -20 15 -30 0 -10 7 -20 15 -24 8 -3 15 -14 15 -25 0 -10 7
-21 15 -25 8 -3 15 -14 15 -24 0 -11 9 -31 20 -45 11 -14 20 -32 20 -40 0 -8
7 -20 15 -27 8 -7 15 -21 15 -32 0 -10 7 -21 15 -24 8 -4 15 -16 15 -29 0 -13
7 -25 15 -29 8 -3 15 -14 15 -24 0 -11 8 -30 18 -43 10 -13 22 -31 25 -39 12
-27 32 -55 45 -63 6 -4 12 -23 12 -41 0 -25 -7 -38 -26 -51 -37 -24 -85 -29
-124 -13 -30 12 -211 14 -1145 11 -774 -2 -1128 -7 -1171 -15 -53 -10 -65 -9
-95 7 -19 10 -49 20 -68 24 l-34 6 289 281 c333 324 499 478 555 516 22 15 64
32 92 37 205 42 692 61 1024 40z"/>
<path d="M1873 5908 c-2 -5 -14 -8 -27 -8 -33 0 -96 -66 -96 -101 0 -15 -7
-34 -15 -43 -8 -8 -15 -25 -15 -39 0 -13 -9 -34 -20 -47 -11 -13 -20 -31 -20
-40 0 -10 -7 -23 -15 -30 -8 -7 -15 -23 -15 -35 0 -12 -7 -28 -15 -35 -8 -7
-15 -26 -15 -42 0 -16 -6 -31 -15 -34 -8 -4 -15 -12 -15 -20 0 -14 -45 -103
-61 -118 -5 -6 -9 -20 -9 -33 0 -13 -7 -26 -15 -29 -8 -4 -15 -17 -15 -29 0
-13 -7 -30 -15 -39 -8 -8 -15 -24 -15 -35 0 -11 -7 -26 -15 -35 -8 -8 -15 -22
-15 -31 0 -9 -9 -28 -20 -42 -11 -14 -20 -34 -20 -43 0 -10 -7 -23 -15 -30
-21 -18 -19 -36 7 -54 19 -14 77 -16 428 -16 223 0 436 5 473 10 69 10 146 43
204 86 35 27 59 90 49 130 l-6 24 -318 0 c-174 0 -333 3 -353 6 l-37 6 63 142
c34 77 79 177 100 221 80 174 155 346 155 359 0 8 -12 18 -27 22 -35 10 -233
12 -240 2z"/>
<path d="M3195 5910 c-3 -5 -17 -10 -31 -10 -14 0 -27 -7 -30 -15 -4 -8 -12
-15 -20 -15 -8 0 -14 -9 -14 -20 0 -11 -7 -23 -15 -26 -8 -4 -15 -16 -15 -29
0 -12 -7 -28 -15 -35 -8 -7 -15 -20 -15 -30 0 -10 -7 -23 -15 -30 -8 -7 -15
-18 -15 -24 0 -6 -9 -28 -20 -49 -11 -20 -20 -48 -20 -61 0 -13 -7 -29 -15
-36 -8 -7 -15 -20 -15 -30 0 -10 -7 -23 -15 -30 -8 -7 -15 -23 -15 -37 0 -13
-7 -26 -15 -29 -8 -4 -15 -13 -15 -21 0 -8 -9 -26 -20 -40 -11 -14 -20 -34
-20 -43 0 -10 -7 -23 -15 -30 -8 -7 -15 -23 -15 -36 0 -13 -8 -27 -17 -33 -15
-8 -17 -25 -16 -116 l1 -108 38 -33 c20 -19 51 -36 68 -39 17 -3 255 -5 528
-3 485 3 497 3 525 24 33 24 55 67 221 428 186 407 224 494 220 519 -3 20 -10
23 -79 28 -42 4 -82 10 -88 14 -7 4 -24 2 -39 -3 -15 -6 -40 -13 -56 -17 -35
-7 -103 -74 -112 -109 -3 -14 -12 -30 -20 -37 -8 -6 -14 -25 -14 -41 0 -16 -6
-31 -15 -34 -9 -4 -15 -19 -15 -35 0 -17 -6 -32 -15 -35 -8 -4 -15 -14 -15
-24 0 -10 -7 -25 -15 -34 -8 -8 -15 -21 -15 -28 0 -7 -9 -26 -20 -43 -11 -16
-20 -40 -20 -51 0 -12 -7 -24 -15 -28 -8 -3 -15 -16 -15 -29 0 -14 -7 -30 -15
-37 -8 -7 -15 -21 -15 -31 0 -9 -7 -24 -15 -33 -8 -8 -15 -24 -15 -35 0 -10
-12 -33 -26 -50 l-26 -31 -176 0 c-107 0 -188 -4 -207 -12 -69 -24 -165 31
-151 87 5 19 110 252 233 514 40 87 55 133 44 144 -32 32 -230 53 -246 27z"/>
<path d="M4714 5908 c-3 -4 -14 -8 -25 -8 -31 0 -109 -54 -109 -76 0 -6 -7
-17 -15 -24 -8 -7 -15 -26 -15 -42 0 -16 -6 -31 -15 -34 -8 -4 -15 -16 -15
-29 0 -12 -7 -28 -15 -35 -8 -7 -15 -20 -15 -29 0 -10 -7 -26 -15 -37 -8 -10
-15 -29 -15 -40 0 -12 -9 -33 -20 -47 -11 -14 -20 -32 -20 -40 0 -8 -7 -17
-15 -21 -8 -3 -15 -16 -15 -29 0 -14 -7 -30 -15 -37 -8 -7 -15 -20 -15 -29 0
-10 -7 -26 -15 -37 -8 -10 -15 -27 -15 -37 0 -10 -7 -20 -15 -23 -8 -4 -18
-24 -21 -45 -4 -21 -13 -44 -20 -50 -8 -6 -14 -22 -14 -34 0 -13 -7 -25 -15
-29 -8 -3 -15 -17 -15 -32 0 -15 -6 -32 -14 -38 -8 -6 -18 -32 -21 -58 -8 -57
0 -63 98 -71 99 -9 161 7 213 55 34 31 54 67 104 181 123 280 225 481 258 509
42 35 104 44 211 31 92 -12 120 -31 121 -85 0 -25 -39 -111 -61 -132 -5 -6 -9
-20 -9 -32 0 -12 -7 -27 -15 -34 -8 -7 -15 -23 -15 -37 0 -13 -7 -26 -15 -29
-9 -4 -15 -19 -15 -35 0 -17 -6 -32 -15 -35 -8 -4 -15 -14 -15 -23 0 -9 -9
-33 -20 -54 -11 -20 -20 -45 -20 -56 0 -10 -7 -21 -15 -25 -8 -3 -15 -17 -15
-31 0 -14 -7 -28 -15 -31 -8 -4 -15 -15 -15 -26 0 -11 -5 -28 -11 -39 -8 -16
-7 -26 6 -45 15 -23 19 -24 137 -24 177 0 169 -8 311 300 14 30 46 100 72 155
26 55 58 123 71 152 51 113 138 173 251 173 69 0 138 -23 153 -51 15 -27 12
-85 -5 -99 -8 -7 -15 -18 -15 -25 0 -6 -9 -20 -20 -30 -11 -10 -20 -29 -20
-42 0 -14 -7 -31 -15 -39 -8 -9 -15 -26 -15 -40 0 -14 -7 -27 -15 -30 -8 -4
-15 -18 -15 -34 0 -15 -7 -33 -15 -40 -8 -7 -15 -21 -15 -32 0 -11 -9 -31 -20
-45 -11 -14 -20 -34 -20 -45 0 -10 -7 -21 -15 -24 -9 -4 -15 -19 -15 -35 0
-17 -6 -32 -15 -35 -8 -4 -15 -17 -15 -30 0 -14 -7 -27 -15 -30 -21 -8 -19
-51 3 -63 10 -6 70 -11 133 -12 174 -4 200 16 292 236 14 33 43 98 65 145 161
348 182 396 188 441 14 104 -35 171 -136 184 -154 20 -558 6 -612 -21 -36 -18
-89 -18 -152 2 -28 9 -65 20 -82 25 -39 11 -643 9 -650 -3z"/>
<path d="M6980 5910 c-14 -4 -52 -9 -85 -9 -33 -1 -71 -8 -85 -16 -14 -8 -35
-14 -47 -15 -13 0 -23 -3 -23 -7 0 -5 -26 -23 -58 -42 -57 -34 -132 -116 -132
-144 0 -8 -7 -20 -15 -27 -8 -7 -15 -20 -15 -30 0 -10 -7 -23 -15 -30 -8 -7
-15 -20 -15 -30 0 -9 -9 -27 -20 -40 -11 -13 -20 -31 -20 -40 0 -10 -7 -23
-15 -30 -8 -7 -15 -25 -15 -40 0 -16 -7 -30 -15 -34 -9 -3 -15 -18 -15 -36 0
-18 -6 -33 -15 -36 -8 -4 -15 -17 -15 -29 0 -13 -6 -30 -14 -37 -7 -8 -17 -28
-20 -45 -4 -18 -14 -37 -22 -44 -8 -6 -14 -22 -14 -34 0 -12 -7 -28 -15 -35
-8 -7 -15 -21 -15 -31 0 -10 -7 -22 -16 -27 -11 -6 -14 -22 -12 -63 l3 -54
137 0 c132 0 137 1 163 25 15 14 49 70 76 126 26 55 57 108 67 117 16 15 51
17 276 19 218 2 258 0 266 -12 15 -23 12 -87 -5 -103 -7 -8 -17 -26 -20 -40
-4 -14 -13 -28 -21 -31 -9 -4 -14 -21 -14 -50 0 -53 -2 -52 131 -59 139 -7
198 25 249 138 15 33 60 132 100 220 40 88 88 194 107 235 66 141 93 217 93
265 0 84 -42 131 -135 149 -63 11 -691 17 -725 6z m413 -251 c10 -6 22 -20 27
-32 6 -12 15 -30 22 -39 10 -14 9 -20 -5 -36 -9 -10 -17 -25 -17 -34 0 -8 -18
-28 -41 -42 -41 -27 -43 -28 -213 -28 -121 0 -181 -5 -205 -14 -48 -20 -80
-17 -117 8 -27 19 -32 27 -27 48 22 95 85 165 155 174 107 14 391 11 421 -5z"/>
<path d="M8310 5910 c-8 -5 -27 -10 -42 -10 -34 0 -95 -28 -128 -57 -14 -13
-28 -23 -32 -23 -5 0 -8 -9 -8 -20 0 -11 -6 -23 -14 -26 -8 -3 -18 -18 -21
-34 -3 -16 -13 -34 -21 -41 -8 -6 -14 -22 -14 -34 0 -12 -7 -28 -15 -35 -8 -7
-15 -25 -15 -41 0 -15 -7 -32 -16 -37 -11 -6 -15 -28 -17 -94 -2 -84 -2 -85
32 -115 18 -17 47 -34 65 -38 17 -4 146 -10 286 -14 246 -6 256 -7 288 -29 41
-30 46 -58 14 -90 -30 -30 -78 -45 -119 -37 -21 4 -171 9 -333 12 l-295 4 -58
-35 c-67 -41 -107 -75 -107 -94 0 -7 -7 -15 -15 -18 -10 -4 -15 -20 -15 -50 0
-41 2 -43 33 -49 17 -3 259 -5 537 -3 l505 3 47 23 c119 59 248 286 252 444 1
57 -19 102 -55 118 -7 4 -24 12 -36 18 -16 8 -107 12 -289 12 -250 0 -269 1
-299 20 -54 33 -54 59 -2 108 24 23 24 23 383 25 241 2 370 7 394 15 71 24
141 108 152 180 6 46 -30 50 -540 51 -286 0 -473 -3 -482 -9z"/>
<path d="M9995 5910 c-22 -5 -80 -9 -130 -9 -59 -1 -100 -6 -119 -16 -15 -8
-44 -15 -62 -15 -19 0 -34 -4 -34 -10 0 -5 -4 -10 -10 -10 -15 0 -89 -54 -90
-66 0 -5 -21 -30 -46 -54 -26 -24 -51 -57 -56 -72 -6 -15 -14 -28 -19 -28 -5
0 -9 -13 -9 -29 0 -16 -7 -34 -15 -41 -8 -7 -15 -19 -15 -27 0 -8 -9 -26 -20
-40 -11 -14 -20 -34 -20 -45 0 -10 -7 -21 -15 -24 -9 -4 -15 -19 -15 -35 0
-17 -6 -32 -15 -35 -8 -4 -15 -18 -15 -34 0 -15 -7 -33 -15 -40 -8 -7 -15 -23
-15 -36 0 -12 -7 -29 -15 -38 -8 -8 -15 -21 -15 -29 0 -8 -9 -26 -20 -40 -11
-14 -20 -37 -20 -51 0 -15 -7 -29 -15 -32 -8 -4 -15 -18 -15 -34 0 -15 -7 -33
-15 -40 -8 -7 -15 -23 -15 -36 0 -34 36 -46 145 -46 147 -2 202 33 246 153 27
74 71 123 122 137 23 7 122 8 267 5 188 -5 230 -9 226 -20 -3 -7 -1 -13 4 -13
13 0 13 -37 0 -45 -5 -3 -10 -17 -10 -31 0 -14 -7 -27 -15 -30 -8 -3 -17 -21
-21 -39 -3 -19 -12 -36 -20 -39 -20 -8 -17 -54 4 -65 11 -6 68 -11 128 -12 89
-3 116 0 147 15 44 21 84 76 120 161 27 63 118 266 169 375 120 256 124 266
113 336 -9 61 -59 110 -123 119 -72 10 -592 14 -637 5z m322 -264 c30 -19 33
-25 33 -73 0 -29 -4 -53 -9 -53 -5 0 -12 -8 -15 -18 -3 -9 -22 -26 -43 -37
-34 -19 -54 -20 -267 -17 -276 3 -286 4 -286 41 0 39 59 132 99 155 45 26 136
35 311 29 126 -5 149 -8 177 -27z"/>
<path d="M11207 5908 c-7 -4 -26 -8 -43 -8 -17 0 -37 -7 -44 -15 -7 -8 -20
-15 -28 -15 -18 0 -92 -78 -92 -96 0 -6 -6 -17 -14 -23 -8 -7 -18 -26 -21 -42
-4 -17 -13 -33 -21 -36 -8 -3 -14 -18 -14 -33 0 -15 -7 -33 -15 -40 -8 -7 -15
-23 -15 -35 0 -12 -7 -28 -15 -35 -8 -7 -15 -23 -15 -36 0 -12 -7 -29 -15 -38
-8 -8 -15 -22 -15 -31 0 -8 -7 -18 -15 -21 -8 -3 -17 -22 -21 -41 -4 -19 -13
-37 -20 -40 -8 -3 -14 -14 -14 -24 0 -11 -7 -22 -15 -25 -9 -4 -15 -19 -15
-39 0 -18 -7 -38 -15 -45 -8 -7 -15 -27 -15 -44 0 -17 -7 -44 -15 -60 -19 -36
-19 -60 0 -76 8 -7 15 -20 15 -29 0 -9 19 -29 43 -46 l42 -30 451 0 450 0 59
30 c64 33 97 72 117 138 11 36 10 40 -13 58 -22 17 -47 19 -375 19 -327 0
-352 1 -367 18 -27 29 -20 70 28 170 25 52 63 136 86 187 46 105 70 133 124
145 20 5 148 6 283 3 141 -3 294 -1 356 5 95 9 115 15 150 39 45 32 92 101
102 149 5 28 3 32 -23 39 -35 10 -1001 13 -1016 3z"/>
<path d="M12560 5911 c-8 -4 -33 -17 -55 -28 -22 -11 -46 -33 -54 -49 -8 -16
-18 -30 -23 -32 -4 -2 -8 -17 -8 -33 0 -17 -8 -36 -20 -46 -11 -10 -20 -24
-20 -31 0 -7 -7 -20 -15 -28 -8 -9 -15 -24 -15 -33 0 -10 -7 -24 -15 -31 -8
-7 -15 -23 -15 -37 0 -13 -7 -26 -15 -29 -8 -4 -15 -15 -15 -26 0 -11 -9 -31
-20 -45 -11 -14 -20 -33 -20 -42 0 -9 -7 -25 -15 -35 -8 -11 -15 -30 -15 -42
0 -12 -7 -27 -15 -34 -8 -7 -15 -23 -15 -35 0 -12 -7 -28 -15 -35 -8 -7 -15
-20 -15 -30 0 -10 -6 -23 -14 -29 -8 -7 -17 -27 -20 -45 -4 -19 -13 -37 -21
-40 -9 -3 -15 -18 -15 -35 0 -17 -7 -34 -16 -39 -11 -6 -14 -22 -12 -63 l3
-54 125 -3 c170 -3 173 -1 251 166 81 171 82 174 119 200 31 21 42 22 219 21
102 -1 197 -4 211 -8 34 -9 51 -72 27 -98 -8 -10 -18 -30 -22 -45 -4 -15 -13
-29 -21 -32 -8 -3 -14 -14 -14 -24 0 -11 -7 -25 -15 -32 -8 -7 -15 -24 -15
-38 0 -14 -8 -34 -17 -44 -16 -18 -15 -20 8 -43 22 -22 33 -24 129 -26 152 -3
197 22 248 141 25 58 40 92 192 420 172 373 186 408 172 422 -21 21 -86 38
-147 38 -87 0 -195 -39 -195 -70 0 -9 -7 -25 -15 -36 -8 -10 -15 -26 -15 -35
0 -9 -9 -28 -20 -42 -11 -14 -20 -34 -20 -45 0 -11 -7 -25 -15 -32 -8 -7 -15
-21 -15 -32 0 -26 -40 -78 -61 -78 -9 0 -29 -6 -44 -14 -40 -21 -368 -22 -385
-1 -7 8 -21 15 -31 15 -30 0 -23 25 41 161 33 69 63 139 66 155 5 27 2 30 -35
42 -44 13 -187 16 -211 3z"/>
<path d="M13990 5911 c-8 -6 -23 -11 -33 -11 -63 0 -127 -77 -127 -151 1 -56
35 -74 150 -76 52 -1 109 -2 126 -2 28 -1 33 -5 39 -37 4 -26 2 -41 -9 -53 -9
-10 -16 -27 -16 -38 0 -12 -7 -23 -15 -27 -8 -3 -15 -14 -15 -24 0 -11 -7 -25
-15 -32 -8 -7 -15 -23 -15 -35 0 -12 -7 -28 -15 -35 -8 -7 -15 -21 -15 -32 0
-11 -9 -31 -20 -45 -11 -14 -20 -36 -20 -48 0 -12 -7 -28 -15 -35 -8 -7 -15
-19 -15 -27 0 -8 -10 -23 -22 -34 -20 -16 -41 -18 -158 -19 -131 0 -136 -1
-187 -30 -29 -17 -53 -35 -53 -40 0 -5 -13 -24 -30 -42 -16 -18 -30 -38 -30
-44 0 -6 -7 -17 -15 -24 -21 -17 -19 -47 4 -60 13 -6 196 -10 526 -10 491 0
507 1 546 21 29 14 46 32 60 62 25 55 25 128 1 150 -24 22 -97 22 -147 1 -43
-18 -110 -11 -119 12 -3 8 -12 14 -21 14 -8 0 -15 2 -15 4 0 13 197 441 217
472 21 33 36 36 175 39 149 4 196 20 246 83 37 46 65 108 58 127 -7 21 -247
34 -431 25 -33 -2 -172 0 -310 4 -170 5 -255 4 -265 -3z"/>
</g>
</svg>
